<svg width="64" height="64" viewBox="0 0 64 64" fill="none" xmlns="http://www.w3.org/2000/svg">
  <rect width="64" height="64" rx="16" fill="url(#logo-bg)" />
  <path d="M18 41.5V18h17.2c7.1 0 11.8 4.2 11.8 10.5S42.3 39 35.2 39H27v2.5c0 3.6-2.9 6.5-6.5 6.5H18v-6.5Z" fill="white" opacity="0.96" />
  <path d="M27 26.2v5.6h7.2c2.4 0 3.9-1.1 3.9-2.8 0-1.8-1.5-2.8-3.9-2.8H27Z" fill="#1F6FEB" />
  <path d="M27 41.5c5.9 3.6 12.8 3.3 18.1-.8" stroke="#43D3C5" stroke-width="4.2" stroke-linecap="round" />
  <path d="M42.7 36.8l2.7 3.9 4.2-6.3" stroke="white" stroke-width="3.4" stroke-linecap="round" stroke-linejoin="round" />
  <defs>
    <linearGradient id="logo-bg" x1="8" y1="7" x2="58" y2="58" gradientUnits="userSpaceOnUse">
      <stop stop-color="#1F6FEB" />
      <stop offset="1" stop-color="#0F9F8F" />
    </linearGradient>
  </defs>
</svg>
